<mxfile host="app.diagrams.net" agent="Mozilla/5.0 (Windows NT 10.0; Win64; x64) AppleWebKit/537.36 (KHTML, like Gecko) Chrome/131.0.0.0 Safari/537.36" version="24.9.0">
  <diagram name="Page-1" id="QHZh514AONBUXXKokW-p">
    <mxGraphModel dx="880" dy="460" grid="1" gridSize="10" guides="1" tooltips="1" connect="1" arrows="1" fold="1" page="1" pageScale="1" pageWidth="850" pageHeight="1100" math="0" shadow="0">
      <root>
        <mxCell id="0" />
        <mxCell id="1" parent="0" />
        <mxCell id="ndew--mEYRyhN8e9muN3-3" value="Windows Server" style="outlineConnect=0;dashed=0;verticalLabelPosition=bottom;verticalAlign=top;align=center;html=1;shape=mxgraph.aws3.traditional_server;fillColor=#7D7C7C;gradientColor=none;" vertex="1" parent="1">
          <mxGeometry x="570" y="70" width="40" height="50" as="geometry" />
        </mxCell>
        <mxCell id="ndew--mEYRyhN8e9muN3-5" value="SSH Server" style="outlineConnect=0;dashed=0;verticalLabelPosition=bottom;verticalAlign=top;align=center;html=1;shape=mxgraph.aws3.traditional_server;fillColor=#7D7C7C;gradientColor=none;" vertex="1" parent="1">
          <mxGeometry x="720" y="360" width="40" height="50" as="geometry" />
        </mxCell>
        <mxCell id="ndew--mEYRyhN8e9muN3-63" style="edgeStyle=orthogonalEdgeStyle;rounded=0;orthogonalLoop=1;jettySize=auto;html=1;" edge="1" parent="1" source="ndew--mEYRyhN8e9muN3-8" target="ndew--mEYRyhN8e9muN3-9">
          <mxGeometry relative="1" as="geometry" />
        </mxCell>
        <mxCell id="ndew--mEYRyhN8e9muN3-65" value="RDP Brute Force" style="edgeLabel;html=1;align=center;verticalAlign=middle;resizable=0;points=[];" vertex="1" connectable="0" parent="ndew--mEYRyhN8e9muN3-63">
          <mxGeometry x="-0.1714" relative="1" as="geometry">
            <mxPoint as="offset" />
          </mxGeometry>
        </mxCell>
        <mxCell id="ndew--mEYRyhN8e9muN3-8" value="&lt;font color=&quot;#000000&quot;&gt;Attacker Laptop&lt;/font&gt;&lt;div&gt;&lt;font color=&quot;#000000&quot;&gt;Kali Linux&lt;/font&gt;&lt;/div&gt;" style="verticalLabelPosition=bottom;html=1;verticalAlign=top;align=center;strokeColor=#6F0000;fillColor=#a20025;shape=mxgraph.azure.laptop;pointerEvents=1;fontColor=#ffffff;" vertex="1" parent="1">
          <mxGeometry x="90" y="70" width="50" height="30" as="geometry" />
        </mxCell>
        <mxCell id="ndew--mEYRyhN8e9muN3-64" style="edgeStyle=orthogonalEdgeStyle;rounded=0;orthogonalLoop=1;jettySize=auto;html=1;" edge="1" parent="1" source="ndew--mEYRyhN8e9muN3-9">
          <mxGeometry relative="1" as="geometry">
            <mxPoint x="560" y="85" as="targetPoint" />
          </mxGeometry>
        </mxCell>
        <mxCell id="ndew--mEYRyhN8e9muN3-9" value="Internet&lt;div&gt;&lt;br&gt;&lt;/div&gt;" style="ellipse;shape=cloud;whiteSpace=wrap;html=1;align=center;" vertex="1" parent="1">
          <mxGeometry x="350" y="60" width="80" height="50" as="geometry" />
        </mxCell>
        <mxCell id="ndew--mEYRyhN8e9muN3-10" value="&lt;u&gt;Phase 1&lt;/u&gt;&lt;div&gt;&lt;u&gt;Initial Access&lt;/u&gt;&lt;/div&gt;" style="text;html=1;align=center;verticalAlign=middle;resizable=0;points=[];autosize=1;strokeColor=none;fillColor=none;" vertex="1" parent="1">
          <mxGeometry x="345" y="10" width="90" height="40" as="geometry" />
        </mxCell>
        <mxCell id="ndew--mEYRyhN8e9muN3-66" style="edgeStyle=orthogonalEdgeStyle;rounded=0;orthogonalLoop=1;jettySize=auto;html=1;" edge="1" parent="1" source="ndew--mEYRyhN8e9muN3-11">
          <mxGeometry relative="1" as="geometry">
            <mxPoint x="340" y="165" as="targetPoint" />
          </mxGeometry>
        </mxCell>
        <mxCell id="ndew--mEYRyhN8e9muN3-70" value="Successful Authentication" style="edgeLabel;html=1;align=center;verticalAlign=middle;resizable=0;points=[];" vertex="1" connectable="0" parent="ndew--mEYRyhN8e9muN3-66">
          <mxGeometry x="0.1522" y="1" relative="1" as="geometry">
            <mxPoint as="offset" />
          </mxGeometry>
        </mxCell>
        <mxCell id="ndew--mEYRyhN8e9muN3-11" value="&lt;font color=&quot;#000000&quot;&gt;Attacker Laptop&lt;/font&gt;&lt;div&gt;&lt;font color=&quot;#000000&quot;&gt;Kali Linux&lt;/font&gt;&lt;/div&gt;" style="verticalLabelPosition=bottom;html=1;verticalAlign=top;align=center;strokeColor=#6F0000;fillColor=#a20025;shape=mxgraph.azure.laptop;pointerEvents=1;fontColor=#ffffff;" vertex="1" parent="1">
          <mxGeometry x="90" y="150" width="50" height="30" as="geometry" />
        </mxCell>
        <mxCell id="ndew--mEYRyhN8e9muN3-67" style="edgeStyle=orthogonalEdgeStyle;rounded=0;orthogonalLoop=1;jettySize=auto;html=1;" edge="1" parent="1" source="ndew--mEYRyhN8e9muN3-12">
          <mxGeometry relative="1" as="geometry">
            <mxPoint x="560" y="169" as="targetPoint" />
          </mxGeometry>
        </mxCell>
        <mxCell id="ndew--mEYRyhN8e9muN3-12" value="Internet&lt;div&gt;&lt;br&gt;&lt;/div&gt;" style="ellipse;shape=cloud;whiteSpace=wrap;html=1;align=center;" vertex="1" parent="1">
          <mxGeometry x="345" y="144" width="80" height="50" as="geometry" />
        </mxCell>
        <mxCell id="ndew--mEYRyhN8e9muN3-13" value="Windows Server" style="outlineConnect=0;dashed=0;verticalLabelPosition=bottom;verticalAlign=top;align=center;html=1;shape=mxgraph.aws3.traditional_server;fillColor=#7D7C7C;gradientColor=none;" vertex="1" parent="1">
          <mxGeometry x="570" y="150" width="40" height="50" as="geometry" />
        </mxCell>
        <mxCell id="ndew--mEYRyhN8e9muN3-14" value="&lt;u&gt;Phase 2&lt;/u&gt;&lt;div&gt;&lt;u&gt;Discovery&lt;/u&gt;&lt;/div&gt;" style="text;html=1;align=center;verticalAlign=middle;resizable=0;points=[];autosize=1;strokeColor=none;fillColor=none;" vertex="1" parent="1">
          <mxGeometry x="350" y="225" width="80" height="40" as="geometry" />
        </mxCell>
        <mxCell id="ndew--mEYRyhN8e9muN3-16" value="Windows Server" style="outlineConnect=0;dashed=0;verticalLabelPosition=bottom;verticalAlign=top;align=center;html=1;shape=mxgraph.aws3.traditional_server;fillColor=#7D7C7C;gradientColor=none;" vertex="1" parent="1">
          <mxGeometry x="570" y="280" width="40" height="50" as="geometry" />
        </mxCell>
        <mxCell id="ndew--mEYRyhN8e9muN3-72" style="edgeStyle=orthogonalEdgeStyle;rounded=0;orthogonalLoop=1;jettySize=auto;html=1;" edge="1" parent="1" source="ndew--mEYRyhN8e9muN3-17" target="ndew--mEYRyhN8e9muN3-18">
          <mxGeometry relative="1" as="geometry" />
        </mxCell>
        <mxCell id="ndew--mEYRyhN8e9muN3-74" value="Discovery via RDP" style="edgeLabel;html=1;align=center;verticalAlign=middle;resizable=0;points=[];" vertex="1" connectable="0" parent="ndew--mEYRyhN8e9muN3-72">
          <mxGeometry x="0.037" y="2" relative="1" as="geometry">
            <mxPoint as="offset" />
          </mxGeometry>
        </mxCell>
        <mxCell id="ndew--mEYRyhN8e9muN3-17" value="&lt;font color=&quot;#000000&quot;&gt;Attacker Laptop&lt;/font&gt;&lt;div&gt;&lt;font color=&quot;#000000&quot;&gt;Kali Linux&lt;/font&gt;&lt;/div&gt;" style="verticalLabelPosition=bottom;html=1;verticalAlign=top;align=center;strokeColor=#6F0000;fillColor=#a20025;shape=mxgraph.azure.laptop;pointerEvents=1;fontColor=#ffffff;" vertex="1" parent="1">
          <mxGeometry x="85" y="280" width="50" height="30" as="geometry" />
        </mxCell>
        <mxCell id="ndew--mEYRyhN8e9muN3-73" style="edgeStyle=orthogonalEdgeStyle;rounded=0;orthogonalLoop=1;jettySize=auto;html=1;" edge="1" parent="1" source="ndew--mEYRyhN8e9muN3-18">
          <mxGeometry relative="1" as="geometry">
            <mxPoint x="560" y="296" as="targetPoint" />
          </mxGeometry>
        </mxCell>
        <mxCell id="ndew--mEYRyhN8e9muN3-18" value="Internet&lt;div&gt;&lt;br&gt;&lt;/div&gt;" style="ellipse;shape=cloud;whiteSpace=wrap;html=1;align=center;" vertex="1" parent="1">
          <mxGeometry x="350" y="271" width="80" height="50" as="geometry" />
        </mxCell>
        <mxCell id="ndew--mEYRyhN8e9muN3-19" value="&lt;u&gt;Phase 3&lt;/u&gt;&lt;div&gt;&lt;u&gt;Defense Evasion&lt;/u&gt;&lt;/div&gt;" style="text;html=1;align=center;verticalAlign=middle;resizable=0;points=[];autosize=1;strokeColor=none;fillColor=none;" vertex="1" parent="1">
          <mxGeometry x="330" y="366" width="110" height="40" as="geometry" />
        </mxCell>
        <mxCell id="ndew--mEYRyhN8e9muN3-77" style="edgeStyle=orthogonalEdgeStyle;rounded=0;orthogonalLoop=1;jettySize=auto;html=1;" edge="1" parent="1" source="ndew--mEYRyhN8e9muN3-21">
          <mxGeometry relative="1" as="geometry">
            <mxPoint x="560" y="432" as="targetPoint" />
          </mxGeometry>
        </mxCell>
        <mxCell id="ndew--mEYRyhN8e9muN3-80" value="Disable Defender" style="edgeLabel;html=1;align=center;verticalAlign=middle;resizable=0;points=[];" vertex="1" connectable="0" parent="ndew--mEYRyhN8e9muN3-77">
          <mxGeometry x="-0.2472" relative="1" as="geometry">
            <mxPoint as="offset" />
          </mxGeometry>
        </mxCell>
        <mxCell id="ndew--mEYRyhN8e9muN3-21" value="Internet&lt;div&gt;&lt;br&gt;&lt;/div&gt;" style="ellipse;shape=cloud;whiteSpace=wrap;html=1;align=center;" vertex="1" parent="1">
          <mxGeometry x="345" y="407" width="80" height="50" as="geometry" />
        </mxCell>
        <mxCell id="ndew--mEYRyhN8e9muN3-23" value="Windows Server" style="outlineConnect=0;dashed=0;verticalLabelPosition=bottom;verticalAlign=top;align=center;html=1;shape=mxgraph.aws3.traditional_server;fillColor=#7D7C7C;gradientColor=none;" vertex="1" parent="1">
          <mxGeometry x="90" y="533" width="40" height="50" as="geometry" />
        </mxCell>
        <mxCell id="ndew--mEYRyhN8e9muN3-24" value="Internet&lt;div&gt;&lt;br&gt;&lt;/div&gt;" style="ellipse;shape=cloud;whiteSpace=wrap;html=1;align=center;" vertex="1" parent="1">
          <mxGeometry x="345" y="533" width="80" height="50" as="geometry" />
        </mxCell>
        <mxCell id="ndew--mEYRyhN8e9muN3-25" value="&lt;font color=&quot;#000000&quot;&gt;Mythic C2&lt;/font&gt;" style="outlineConnect=0;dashed=0;verticalLabelPosition=bottom;verticalAlign=top;align=center;html=1;shape=mxgraph.aws3.traditional_server;fillColor=#a20025;fontColor=#ffffff;strokeColor=#6F0000;" vertex="1" parent="1">
          <mxGeometry x="570" y="533" width="40" height="50" as="geometry" />
        </mxCell>
        <mxCell id="ndew--mEYRyhN8e9muN3-26" value="&lt;u&gt;Phase 4&lt;/u&gt;&lt;div&gt;&lt;u&gt;Execution&lt;/u&gt;&lt;/div&gt;" style="text;html=1;align=center;verticalAlign=middle;resizable=0;points=[];autosize=1;strokeColor=none;fillColor=none;" vertex="1" parent="1">
          <mxGeometry x="345" y="488" width="80" height="40" as="geometry" />
        </mxCell>
        <mxCell id="ndew--mEYRyhN8e9muN3-27" style="rounded=0;orthogonalLoop=1;jettySize=auto;html=1;entryX=0.07;entryY=0.4;entryDx=0;entryDy=0;entryPerimeter=0;" edge="1" parent="1">
          <mxGeometry relative="1" as="geometry">
            <mxPoint x="130" y="561.5843724023275" as="sourcePoint" />
            <mxPoint x="350.5999999999999" y="557" as="targetPoint" />
          </mxGeometry>
        </mxCell>
        <mxCell id="ndew--mEYRyhN8e9muN3-29" value="PowerShell IEX" style="edgeLabel;html=1;align=center;verticalAlign=middle;resizable=0;points=[];" vertex="1" connectable="0" parent="ndew--mEYRyhN8e9muN3-27">
          <mxGeometry x="-0.2928" relative="1" as="geometry">
            <mxPoint as="offset" />
          </mxGeometry>
        </mxCell>
        <mxCell id="ndew--mEYRyhN8e9muN3-28" style="edgeStyle=orthogonalEdgeStyle;rounded=0;orthogonalLoop=1;jettySize=auto;html=1;entryX=0;entryY=0.5;entryDx=0;entryDy=0;entryPerimeter=0;" edge="1" parent="1" source="ndew--mEYRyhN8e9muN3-24" target="ndew--mEYRyhN8e9muN3-25">
          <mxGeometry relative="1" as="geometry" />
        </mxCell>
        <mxCell id="ndew--mEYRyhN8e9muN3-30" value="Mythic Agent" style="edgeLabel;html=1;align=center;verticalAlign=middle;resizable=0;points=[];" vertex="1" connectable="0" parent="ndew--mEYRyhN8e9muN3-28">
          <mxGeometry x="-0.3103" y="2" relative="1" as="geometry">
            <mxPoint as="offset" />
          </mxGeometry>
        </mxCell>
        <mxCell id="ndew--mEYRyhN8e9muN3-31" value="Windows Server" style="outlineConnect=0;dashed=0;verticalLabelPosition=bottom;verticalAlign=top;align=center;html=1;shape=mxgraph.aws3.traditional_server;fillColor=#7D7C7C;gradientColor=none;" vertex="1" parent="1">
          <mxGeometry x="90" y="630" width="40" height="50" as="geometry" />
        </mxCell>
        <mxCell id="ndew--mEYRyhN8e9muN3-32" value="Internet&lt;div&gt;&lt;br&gt;&lt;/div&gt;" style="ellipse;shape=cloud;whiteSpace=wrap;html=1;align=center;" vertex="1" parent="1">
          <mxGeometry x="345" y="630" width="80" height="50" as="geometry" />
        </mxCell>
        <mxCell id="ndew--mEYRyhN8e9muN3-34" style="edgeStyle=orthogonalEdgeStyle;rounded=0;orthogonalLoop=1;jettySize=auto;html=1;" edge="1" parent="1" source="ndew--mEYRyhN8e9muN3-33" target="ndew--mEYRyhN8e9muN3-32">
          <mxGeometry relative="1" as="geometry" />
        </mxCell>
        <mxCell id="ndew--mEYRyhN8e9muN3-36" value="Mythic Agent" style="edgeLabel;html=1;align=center;verticalAlign=middle;resizable=0;points=[];" vertex="1" connectable="0" parent="ndew--mEYRyhN8e9muN3-34">
          <mxGeometry x="0.269" relative="1" as="geometry">
            <mxPoint as="offset" />
          </mxGeometry>
        </mxCell>
        <mxCell id="ndew--mEYRyhN8e9muN3-33" value="&lt;font color=&quot;#000000&quot;&gt;Mythic C2&lt;/font&gt;" style="outlineConnect=0;dashed=0;verticalLabelPosition=bottom;verticalAlign=top;align=center;html=1;shape=mxgraph.aws3.traditional_server;fillColor=#a20025;fontColor=#ffffff;strokeColor=#6F0000;" vertex="1" parent="1">
          <mxGeometry x="570" y="630" width="40" height="50" as="geometry" />
        </mxCell>
        <mxCell id="ndew--mEYRyhN8e9muN3-35" style="edgeStyle=orthogonalEdgeStyle;rounded=0;orthogonalLoop=1;jettySize=auto;html=1;entryX=1;entryY=0.5;entryDx=0;entryDy=0;entryPerimeter=0;" edge="1" parent="1" source="ndew--mEYRyhN8e9muN3-32" target="ndew--mEYRyhN8e9muN3-31">
          <mxGeometry relative="1" as="geometry" />
        </mxCell>
        <mxCell id="ndew--mEYRyhN8e9muN3-37" value="Windows Server" style="outlineConnect=0;dashed=0;verticalLabelPosition=bottom;verticalAlign=top;align=center;html=1;shape=mxgraph.aws3.traditional_server;fillColor=#7D7C7C;gradientColor=none;" vertex="1" parent="1">
          <mxGeometry x="90" y="720" width="40" height="50" as="geometry" />
        </mxCell>
        <mxCell id="ndew--mEYRyhN8e9muN3-38" value="Internet&lt;div&gt;&lt;br&gt;&lt;/div&gt;" style="ellipse;shape=cloud;whiteSpace=wrap;html=1;align=center;" vertex="1" parent="1">
          <mxGeometry x="345" y="720" width="80" height="50" as="geometry" />
        </mxCell>
        <mxCell id="ndew--mEYRyhN8e9muN3-39" value="&lt;font color=&quot;#000000&quot;&gt;Mythic C2&lt;/font&gt;" style="outlineConnect=0;dashed=0;verticalLabelPosition=bottom;verticalAlign=top;align=center;html=1;shape=mxgraph.aws3.traditional_server;fillColor=#a20025;fontColor=#ffffff;strokeColor=#6F0000;" vertex="1" parent="1">
          <mxGeometry x="570" y="720" width="40" height="50" as="geometry" />
        </mxCell>
        <mxCell id="ndew--mEYRyhN8e9muN3-40" style="rounded=0;orthogonalLoop=1;jettySize=auto;html=1;entryX=0.07;entryY=0.4;entryDx=0;entryDy=0;entryPerimeter=0;" edge="1" parent="1">
          <mxGeometry relative="1" as="geometry">
            <mxPoint x="130" y="748.5843724023275" as="sourcePoint" />
            <mxPoint x="350.5999999999999" y="744" as="targetPoint" />
          </mxGeometry>
        </mxCell>
        <mxCell id="ndew--mEYRyhN8e9muN3-41" value="Execute Mythic Agent" style="edgeLabel;html=1;align=center;verticalAlign=middle;resizable=0;points=[];" vertex="1" connectable="0" parent="ndew--mEYRyhN8e9muN3-40">
          <mxGeometry x="-0.2928" relative="1" as="geometry">
            <mxPoint as="offset" />
          </mxGeometry>
        </mxCell>
        <mxCell id="ndew--mEYRyhN8e9muN3-42" style="edgeStyle=orthogonalEdgeStyle;rounded=0;orthogonalLoop=1;jettySize=auto;html=1;entryX=0;entryY=0.5;entryDx=0;entryDy=0;entryPerimeter=0;" edge="1" source="ndew--mEYRyhN8e9muN3-38" target="ndew--mEYRyhN8e9muN3-39" parent="1">
          <mxGeometry relative="1" as="geometry" />
        </mxCell>
        <mxCell id="ndew--mEYRyhN8e9muN3-43" value="Mythic Agent" style="edgeLabel;html=1;align=center;verticalAlign=middle;resizable=0;points=[];" vertex="1" connectable="0" parent="ndew--mEYRyhN8e9muN3-42">
          <mxGeometry x="-0.3103" y="2" relative="1" as="geometry">
            <mxPoint as="offset" />
          </mxGeometry>
        </mxCell>
        <mxCell id="ndew--mEYRyhN8e9muN3-44" value="&lt;u&gt;Phase 5&lt;/u&gt;&lt;div&gt;&lt;u&gt;Command &amp;amp; Control&lt;/u&gt;&lt;/div&gt;" style="text;html=1;align=center;verticalAlign=middle;resizable=0;points=[];autosize=1;strokeColor=none;fillColor=none;" vertex="1" parent="1">
          <mxGeometry x="315" y="803" width="130" height="40" as="geometry" />
        </mxCell>
        <mxCell id="ndew--mEYRyhN8e9muN3-45" value="Windows Server" style="outlineConnect=0;dashed=0;verticalLabelPosition=bottom;verticalAlign=top;align=center;html=1;shape=mxgraph.aws3.traditional_server;fillColor=#7D7C7C;gradientColor=none;" vertex="1" parent="1">
          <mxGeometry x="90" y="850" width="40" height="50" as="geometry" />
        </mxCell>
        <mxCell id="ndew--mEYRyhN8e9muN3-46" value="Internet&lt;div&gt;&lt;br&gt;&lt;/div&gt;" style="ellipse;shape=cloud;whiteSpace=wrap;html=1;align=center;" vertex="1" parent="1">
          <mxGeometry x="345" y="850" width="80" height="50" as="geometry" />
        </mxCell>
        <mxCell id="ndew--mEYRyhN8e9muN3-47" value="&lt;font color=&quot;#000000&quot;&gt;Mythic C2&lt;/font&gt;" style="outlineConnect=0;dashed=0;verticalLabelPosition=bottom;verticalAlign=top;align=center;html=1;shape=mxgraph.aws3.traditional_server;fillColor=#a20025;fontColor=#ffffff;strokeColor=#6F0000;" vertex="1" parent="1">
          <mxGeometry x="570" y="850" width="40" height="50" as="geometry" />
        </mxCell>
        <mxCell id="ndew--mEYRyhN8e9muN3-48" style="rounded=0;orthogonalLoop=1;jettySize=auto;html=1;entryX=0.07;entryY=0.4;entryDx=0;entryDy=0;entryPerimeter=0;" edge="1" parent="1">
          <mxGeometry relative="1" as="geometry">
            <mxPoint x="130" y="878.5843724023275" as="sourcePoint" />
            <mxPoint x="350.5999999999999" y="874" as="targetPoint" />
          </mxGeometry>
        </mxCell>
        <mxCell id="ndew--mEYRyhN8e9muN3-49" value="Establish C2" style="edgeLabel;html=1;align=center;verticalAlign=middle;resizable=0;points=[];" vertex="1" connectable="0" parent="ndew--mEYRyhN8e9muN3-48">
          <mxGeometry x="-0.2928" relative="1" as="geometry">
            <mxPoint as="offset" />
          </mxGeometry>
        </mxCell>
        <mxCell id="ndew--mEYRyhN8e9muN3-50" style="edgeStyle=orthogonalEdgeStyle;rounded=0;orthogonalLoop=1;jettySize=auto;html=1;entryX=0;entryY=0.5;entryDx=0;entryDy=0;entryPerimeter=0;" edge="1" source="ndew--mEYRyhN8e9muN3-46" target="ndew--mEYRyhN8e9muN3-47" parent="1">
          <mxGeometry relative="1" as="geometry" />
        </mxCell>
        <mxCell id="ndew--mEYRyhN8e9muN3-51" value="Mythic Agent" style="edgeLabel;html=1;align=center;verticalAlign=middle;resizable=0;points=[];" vertex="1" connectable="0" parent="ndew--mEYRyhN8e9muN3-50">
          <mxGeometry x="-0.3103" y="2" relative="1" as="geometry">
            <mxPoint as="offset" />
          </mxGeometry>
        </mxCell>
        <mxCell id="ndew--mEYRyhN8e9muN3-52" value="Create fake password file called passwords.txt" style="text;html=1;align=center;verticalAlign=middle;resizable=0;points=[];autosize=1;strokeColor=none;fillColor=none;" vertex="1" parent="1">
          <mxGeometry x="245" y="980" width="270" height="30" as="geometry" />
        </mxCell>
        <mxCell id="ndew--mEYRyhN8e9muN3-53" value="&lt;u&gt;Phase 6&lt;/u&gt;&lt;div&gt;&lt;u&gt;Exfiltration&lt;/u&gt;&lt;/div&gt;" style="text;html=1;align=center;verticalAlign=middle;resizable=0;points=[];autosize=1;strokeColor=none;fillColor=none;" vertex="1" parent="1">
          <mxGeometry x="340" y="933" width="80" height="40" as="geometry" />
        </mxCell>
        <mxCell id="ndew--mEYRyhN8e9muN3-54" value="Windows Server" style="outlineConnect=0;dashed=0;verticalLabelPosition=bottom;verticalAlign=top;align=center;html=1;shape=mxgraph.aws3.traditional_server;fillColor=#7D7C7C;gradientColor=none;" vertex="1" parent="1">
          <mxGeometry x="90" y="1050" width="40" height="50" as="geometry" />
        </mxCell>
        <mxCell id="ndew--mEYRyhN8e9muN3-55" value="Internet&lt;div&gt;&lt;br&gt;&lt;/div&gt;" style="ellipse;shape=cloud;whiteSpace=wrap;html=1;align=center;" vertex="1" parent="1">
          <mxGeometry x="345" y="1050" width="80" height="50" as="geometry" />
        </mxCell>
        <mxCell id="ndew--mEYRyhN8e9muN3-56" style="edgeStyle=orthogonalEdgeStyle;rounded=0;orthogonalLoop=1;jettySize=auto;html=1;" edge="1" source="ndew--mEYRyhN8e9muN3-58" target="ndew--mEYRyhN8e9muN3-55" parent="1">
          <mxGeometry relative="1" as="geometry" />
        </mxCell>
        <mxCell id="ndew--mEYRyhN8e9muN3-62" value="Download passwords.txt" style="edgeLabel;html=1;align=center;verticalAlign=middle;resizable=0;points=[];" vertex="1" connectable="0" parent="ndew--mEYRyhN8e9muN3-56">
          <mxGeometry x="-0.1098" y="1" relative="1" as="geometry">
            <mxPoint as="offset" />
          </mxGeometry>
        </mxCell>
        <mxCell id="ndew--mEYRyhN8e9muN3-58" value="&lt;font color=&quot;#000000&quot;&gt;Mythic C2&lt;/font&gt;" style="outlineConnect=0;dashed=0;verticalLabelPosition=bottom;verticalAlign=top;align=center;html=1;shape=mxgraph.aws3.traditional_server;fillColor=#a20025;fontColor=#ffffff;strokeColor=#6F0000;" vertex="1" parent="1">
          <mxGeometry x="598" y="1050" width="40" height="50" as="geometry" />
        </mxCell>
        <mxCell id="ndew--mEYRyhN8e9muN3-59" style="edgeStyle=orthogonalEdgeStyle;rounded=0;orthogonalLoop=1;jettySize=auto;html=1;entryX=1;entryY=0.5;entryDx=0;entryDy=0;entryPerimeter=0;" edge="1" source="ndew--mEYRyhN8e9muN3-55" target="ndew--mEYRyhN8e9muN3-54" parent="1">
          <mxGeometry relative="1" as="geometry" />
        </mxCell>
        <mxCell id="ndew--mEYRyhN8e9muN3-75" value="whoami, ipconfig, net user, net group" style="text;html=1;align=center;verticalAlign=middle;resizable=0;points=[];autosize=1;strokeColor=none;fillColor=none;" vertex="1" parent="1">
          <mxGeometry x="280" y="318" width="220" height="30" as="geometry" />
        </mxCell>
        <mxCell id="ndew--mEYRyhN8e9muN3-76" style="edgeStyle=orthogonalEdgeStyle;rounded=0;orthogonalLoop=1;jettySize=auto;html=1;entryX=0.063;entryY=0.58;entryDx=0;entryDy=0;entryPerimeter=0;" edge="1" parent="1" target="ndew--mEYRyhN8e9muN3-21">
          <mxGeometry relative="1" as="geometry">
            <mxPoint x="130" y="436" as="sourcePoint" />
          </mxGeometry>
        </mxCell>
        <mxCell id="ndew--mEYRyhN8e9muN3-78" value="RDP" style="edgeLabel;html=1;align=center;verticalAlign=middle;resizable=0;points=[];" vertex="1" connectable="0" parent="ndew--mEYRyhN8e9muN3-76">
          <mxGeometry x="-0.1274" relative="1" as="geometry">
            <mxPoint as="offset" />
          </mxGeometry>
        </mxCell>
        <mxCell id="ndew--mEYRyhN8e9muN3-81" value="Windows Server" style="outlineConnect=0;dashed=0;verticalLabelPosition=bottom;verticalAlign=top;align=center;html=1;shape=mxgraph.aws3.traditional_server;fillColor=#7D7C7C;gradientColor=none;" vertex="1" parent="1">
          <mxGeometry x="570" y="411" width="40" height="50" as="geometry" />
        </mxCell>
        <mxCell id="ndew--mEYRyhN8e9muN3-82" value="&lt;font color=&quot;#000000&quot;&gt;Attacker Laptop&lt;/font&gt;&lt;div&gt;&lt;font color=&quot;#000000&quot;&gt;Kali Linux&lt;/font&gt;&lt;/div&gt;" style="verticalLabelPosition=bottom;html=1;verticalAlign=top;align=center;strokeColor=#6F0000;fillColor=#a20025;shape=mxgraph.azure.laptop;pointerEvents=1;fontColor=#ffffff;" vertex="1" parent="1">
          <mxGeometry x="80" y="419" width="50" height="30" as="geometry" />
        </mxCell>
      </root>
    </mxGraphModel>
  </diagram>
</mxfile>
